<?xml version="1.0" encoding="iso-8859-1"?>
<!-- Generator: Adobe Illustrator 19.0.0, SVG Export Plug-In . SVG Version: 6.00 Build 0)  -->
<svg version="1.1" id="Capa_1" xmlns="http://www.w3.org/2000/svg" xmlns:xlink="http://www.w3.org/1999/xlink" x="0px" y="0px"
	 viewBox="0 0 512.008 512.008" style="enable-background:new 0 0 512.008 512.008;" xml:space="preserve">
<g transform="translate(0 -1)">
	<g transform="translate(1 1)">
		<path style="fill:#BBD1B5;" d="M502.471,51.208v409.6c-0.009,23.561-19.106,42.658-42.667,42.667h-409.6
			c-23.561-0.009-42.658-19.106-42.667-42.667v-409.6C7.503,39.881,11.987,29.009,19.996,21S38.878,8.507,50.204,8.541
			c2.867-0.021,5.727,0.265,8.533,0.853v58.88h392.533V9.395c2.806-0.588,5.667-0.874,8.533-0.853
			C483.365,8.55,502.462,27.647,502.471,51.208z"/>
		<path style="fill:#8BC34A;" d="M58.737,9.395v409.6c-2.806-0.588-5.667-0.874-8.533-0.853
			c-23.561,0.009-42.658,19.106-42.667,42.667v-409.6C7.503,39.881,11.987,29.009,19.996,21S38.878,8.507,50.204,8.541
			C53.071,8.521,55.932,8.807,58.737,9.395z"/>
		<rect x="365.937" y="162.141" style="fill:#2296F3;" width="85.333" height="187.733"/>
		<path style="fill:#4CAF50;" d="M502.471,460.808c-0.009,23.561-19.106,42.658-42.667,42.667h-93.867v-102.4h85.333v17.92
			c2.806-0.588,5.667-0.874,8.533-0.853C483.365,418.15,502.462,437.247,502.471,460.808L502.471,460.808z"/>
		<g>
			<polygon style="fill:#2296F3;" points="314.737,396.723 314.737,503.475 207.985,503.475 			"/>
			<path style="fill:#2296F3;" d="M314.737,273.075v51.2l-179.2,179.2H50.204c-23.564,0-42.667-19.103-42.667-42.667
				c0-23.564,19.103-42.667,42.667-42.667c2.867-0.021,5.727,0.265,8.533,0.853v-145.92H314.737z"/>
			<rect x="365.937" y="68.275" style="fill:#2296F3;" width="85.333" height="42.667"/>
		</g>
		<polygon style="fill:#4CAF50;" points="365.937,162.141 365.937,349.875 451.271,349.875 451.271,401.075 365.937,401.075 
			365.937,503.475 314.737,503.475 314.737,396.723 207.985,503.475 135.537,503.475 314.737,324.275 314.737,273.075 
			58.737,273.075 58.737,68.275 365.937,68.275 365.937,110.941 451.271,110.941 451.271,162.141 		"/>
		<path style="fill:#8BC34A;" d="M502.471,51.208v409.6c-0.009-23.561-19.106-42.658-42.667-42.667
			c-2.867-0.021-5.727,0.265-8.533,0.853V9.395c2.806-0.588,5.667-0.874,8.533-0.853C483.365,8.55,502.462,27.647,502.471,51.208z"
			/>
		<polygon style="fill:#FFEB3A;" points="365.937,162.141 365.937,349.875 451.271,349.875 451.271,401.075 365.937,401.075 
			365.937,503.475 314.737,503.475 314.737,396.723 207.985,503.475 135.537,503.475 314.737,324.275 314.737,273.075 
			58.737,273.075 58.737,221.875 314.737,221.875 314.737,68.275 365.937,68.275 365.937,110.941 451.271,110.941 451.271,162.141 
					"/>
		<path style="fill:#C52828;" d="M263.537,81.222c0,32.783-51.225,117.897-70.005,145.663c-1.558,2.209-4.092,3.523-6.795,3.523
			s-5.238-1.314-6.795-3.523c-18.779-27.766-70.005-112.881-70.005-145.663c1.169-41.264,35.534-73.786,76.8-72.68
			C228.003,7.435,262.369,39.958,263.537,81.222z"/>
		<path style="fill:#F44335;" d="M237.937,81.222c0,32.783-39.842,117.897-54.448,145.663c-0.889,2.134-2.974,3.523-5.285,3.523
			c-2.311,0-4.396-1.39-5.285-3.523c-14.606-27.766-54.448-112.881-54.448-145.663c0-40.14,26.743-72.68,59.733-72.68
			S237.937,41.082,237.937,81.222z"/>
		<circle style="fill:#FFFFFF;" cx="186.737" cy="85.341" r="34.133"/>
	</g>
	<g>
		<path d="M460.804,1.008c-3.474-0.02-6.941,0.33-10.342,1.042c-0.248,0.094-0.492,0.201-0.729,0.32
			c-0.548,0.174-1.076,0.406-1.575,0.691c-0.462,0.25-0.899,0.544-1.304,0.878c-0.419,0.358-0.8,0.757-1.14,1.191
			c-0.335,0.407-0.63,0.845-0.881,1.308c-0.25,0.481-0.451,0.986-0.602,1.507c-0.17,0.542-0.282,1.1-0.335,1.666
			c-0.066,0.258-0.119,0.519-0.158,0.782v50.35H269.944c-11.13-35.934-44.592-60.248-82.206-59.733
			c-37.614-0.515-71.077,23.8-82.206,59.733h-37.26v-50.35c-0.039-0.264-0.092-0.525-0.158-0.783
			c-0.053-0.565-0.166-1.122-0.335-1.663c-0.15-0.522-0.352-1.028-0.602-1.51c-0.252-0.462-0.547-0.899-0.881-1.306
			c-1.043-1.291-2.439-2.25-4.019-2.76c-0.237-0.119-0.481-0.226-0.729-0.32c-3.401-0.712-6.867-1.061-10.342-1.042
			c-13.59-0.034-26.632,5.349-36.242,14.958S-0.03,38.618,0.004,52.208v409.6c0.031,28.264,22.936,51.169,51.2,51.2h409.6
			c28.264-0.031,51.169-22.936,51.2-51.2v-409.6C511.973,23.944,489.068,1.039,460.804,1.008z M494.937,52.208v371.545
			c-9.358-8.457-21.52-13.141-34.133-13.145V18.075C479.648,18.094,494.919,33.365,494.937,52.208z M375.471,171.675h68.267v170.667
			h-68.267V171.675z M443.737,103.408h-68.267v-25.6h68.267V103.408z M307.204,77.808v136.533h-93.819
			c21.996-35.376,59.685-101.705,59.685-132.117c0-1.491-0.152-2.945-0.235-4.417H307.204z M187.737,18.075
			c36.537-1.06,67.055,27.618,68.267,64.15c0,26.344-39.644,96.758-63.754,134.352c-1.084,0.978-1.892,2.224-2.346,3.611
			c-0.625,0.96-1.293,2.005-1.892,2.912c-23.9-35.333-68.542-112.925-68.542-140.875C120.683,45.693,151.201,17.015,187.737,18.075z
			 M102.64,77.808c-0.083,1.471-0.235,2.926-0.235,4.417c0,30.414,37.692,96.747,59.683,132.117H68.271V77.808H102.64z
			 M26.996,28.066c6.427-6.407,15.134-10,24.208-9.992v392.533c-12.613,0.004-24.776,4.688-34.133,13.145V52.208
			C17.056,43.165,20.625,34.484,26.996,28.066z M17.071,461.808c0.019-18.844,15.29-34.115,34.133-34.133
			c2.259-0.018,4.513,0.203,6.725,0.658c0.307,0.022,0.615,0.027,0.923,0.013c0.292,0.076,0.587,0.136,0.885,0.179
			c0.273,0,0.503-0.13,0.77-0.155c2.771-0.22,5.242-1.827,6.566-4.271c0.283-0.497,0.513-1.022,0.685-1.567
			c0.12-0.238,0.227-0.482,0.321-0.731c0.021-0.305,0.025-0.611,0.012-0.917c0.077-0.294,0.136-0.591,0.179-0.892V282.608h238.933
			v39.133l-174.2,174.2h-81.8C32.361,495.923,17.09,480.652,17.071,461.808z M307.204,495.941h-77.617l77.617-77.617V495.941z
			 M324.271,495.941v-98.217c-0.01-3.449-2.093-6.554-5.281-7.871s-6.855-0.588-9.296,1.849l-104.24,104.239h-48.317L321.76,331.319
			c1.597-1.607,2.499-3.778,2.51-6.044v-51.2c0.001-2.264-0.897-4.435-2.498-6.035c-1.601-1.601-3.772-2.499-6.035-2.498H68.271
			v-34.133h104.771c0.257,0.385,0.592,0.898,0.829,1.25c3.142,4.559,8.324,7.282,13.86,7.283s10.72-2.718,13.865-7.275
			c0.24-0.354,0.575-0.87,0.835-1.258h113.306c2.264,0.001,4.435-0.897,6.035-2.498c1.601-1.601,2.499-3.772,2.498-6.035V77.808
			h34.133v34.133c-0.001,2.264,0.897,4.435,2.498,6.035c1.601,1.601,3.772,2.499,6.035,2.498h76.8v34.133h-76.8
			c-2.264-0.001-4.435,0.897-6.035,2.498c-1.601,1.601-2.499,3.772-2.498,6.035v187.733c-0.001,2.264,0.897,4.435,2.498,6.035
			c1.601,1.601,3.772,2.499,6.035,2.498h76.8v34.133h-76.8c-2.264-0.001-4.435,0.897-6.035,2.498
			c-1.601,1.601-2.499,3.772-2.498,6.035v93.867H324.271z M460.804,495.941h-85.333v-85.333h68.267v9.383
			c0.043,0.3,0.103,0.597,0.179,0.891c-0.013,0.306-0.009,0.612,0.012,0.918c0.094,0.249,0.201,0.492,0.321,0.73
			c0.174,0.549,0.407,1.078,0.693,1.579c1.033,1.909,2.79,3.322,4.876,3.922c0.548,0.172,1.112,0.286,1.683,0.34
			c0.266,0.025,0.496,0.155,0.769,0.155c0.586-0.175,1.199-0.24,1.808-0.192c2.212-0.455,4.466-0.676,6.725-0.658
			c18.851,0,34.133,15.282,34.133,34.133C494.937,480.659,479.655,495.941,460.804,495.941L460.804,495.941z"/>
		<path d="M187.737,129.008c23.564,0,42.667-19.103,42.667-42.667s-19.103-42.667-42.667-42.667s-42.667,19.103-42.667,42.667
			C145.098,109.894,164.185,128.98,187.737,129.008L187.737,129.008z M187.737,60.741c14.138,0,25.6,11.462,25.6,25.6
			s-11.462,25.6-25.6,25.6c-14.139,0-25.6-11.462-25.6-25.6C162.153,72.209,173.605,60.757,187.737,60.741L187.737,60.741z"/>
	</g>
</g>
<g>
</g>
<g>
</g>
<g>
</g>
<g>
</g>
<g>
</g>
<g>
</g>
<g>
</g>
<g>
</g>
<g>
</g>
<g>
</g>
<g>
</g>
<g>
</g>
<g>
</g>
<g>
</g>
<g>
</g>
</svg>
